<svg id="Layer_1" data-name="Layer 1" xmlns="http://www.w3.org/2000/svg" viewBox="0 0 544.07 234.55"><title>verified_by_visa</title><path d="M308.83,241.35c-3.62-1.72-7.66-1.7-11.46-2.69-9-2.35-9-2.25-7.37-11.45.77-4.39,1.59-8.79,2.08-13.22.28-2.46,1.09-2.45,3-1.51a57.05,57.05,0,0,0,28.87,6.19,21.85,21.85,0,0,0,10.16-2.76c6-3.53,6.65-9.5,1.54-14.18-3.16-2.89-7-4.71-10.8-6.58a69.22,69.22,0,0,1-14-8.66C299,176.67,296.7,161.91,305,148.94c5.81-9.1,14.57-14.08,24.68-16.79a70,70,0,0,1,39.95,1.25c1.54.49,3,.87,2.53,3.18-1.27,7-2.33,14-3.54,21.33A54.34,54.34,0,0,0,352.23,153c-5.15-.56-10.27-.76-15.3.87a13.64,13.64,0,0,0-4.27,2.13c-4.25,3.31-4.45,7.75-.45,11.39,3.08,2.8,6.78,4.66,10.45,6.53A101.89,101.89,0,0,1,356,181.62c15.93,11.41,14.35,28.61,7.76,39.93C357.43,232.43,347,237.29,335.23,240c-1.71.39-3.59.16-5.08,1.38Z" transform="translate(0 -6.8)" style="fill:#105ea4"/><path d="M0,13c5.53,0,10.87-1.39,16.23-2.39,2.95-.55,3.7.2,4.2,2.86,4.12,21.69,8.36,43.35,12.55,65a4.6,4.6,0,0,0,.84,2.6C35,80.3,35.22,79,35.76,77.94,46.44,56.69,57.15,35.45,67.69,14.13c1.21-2.45,2.58-3.27,5.24-3.15,4.91.22,9.85.06,14.71.06.66,1.16-.22,1.84-.61,2.59Q63.45,58.4,39.88,103.17c-1.11,2.12-2.32,3-4.71,2.84-4-.2-8-.16-12,0-2.11.08-2.88-.56-3.36-2.72q-9.4-42.9-19-85.76c-.14-.64,0-1.41-.76-1.79Z" transform="translate(0 -6.8)" style="fill:#105ea4"/><path d="M423.7,6.8q-7.29,47.47-14.54,94.95c-.42,2.78-1.22,4.26-4.41,3.85a42.92,42.92,0,0,0-7.89,0c-2.16.13-2.83-.71-2.66-2.78.15-1.79,0-3.6,0-5.88-2,1.63-3.66,3-5.35,4.27a27.18,27.18,0,0,1-13.13,5.48c-12.25,1.52-21.16-4.41-23.12-16.54-2.29-14.1.48-27.49,9.28-39,9.42-12.27,22.36-14.66,36.67-11,3.34.86,3.48-.38,3.83-2.81,1.19-8.26,2.59-16.49,3.72-24.76.35-2.54,1.2-3.63,3.94-3.94,3.18-.36,6.54-.24,9.5-1.89Z" transform="translate(0 -6.8)" style="fill:#105ea4"/><path d="M544.07,56.32c-5.21,8.72-9.4,18-14.13,26.93-4.48,8.49-8.78,17.07-13.19,25.6a37.06,37.06,0,0,1-7.37,10.26c-4.78,4.48-10.55,5.63-16.84,5.21-1.75-.12-2.46-.93-2.23-2.64a4.44,4.44,0,0,0,0-.69c-.05-2.28-.93-5.07.07-6.7s3.88,0,6-.15a9.87,9.87,0,0,0,9.29-11.69c-3.06-14.42-6-28.86-9.29-43.24-.61-2.68.27-3.15,2.43-3.35,2.51-.23,5-.49,7.49-.93,2.32-.41,3.15.36,3.52,2.73,1.48,9.6,3.19,19.17,4.84,28.75.15.88.44,1.73.81,3.13,4.83-10.13,9.69-19.69,13.94-29.52,1.63-3.77,3.57-5.41,7.58-4.8,2.35.36,4.79-.39,7.14.41Z" transform="translate(0 -6.8)" style="fill:#105ea4"/><path d="M430.83,132c3.44,0,6.88.13,10.31,0,2.13-.11,2.89.57,3.33,2.72,4.91,23.86,10,47.68,15,71.52,2.18,10.41,4.27,20.83,6.57,31.21.48,2.17-.11,2.52-2.07,2.5q-10.65-.12-21.31,0c-1.72,0-2.4-.56-2.7-2.22-.72-3.94-1.72-7.82-2.4-11.76-.33-1.87-1.16-2.39-3-2.38-10.2.07-20.39.1-30.59,0-2,0-2.8.82-3.38,2.53-1.27,3.79-2.81,7.5-4,11.32-.63,2-1.7,2.56-3.73,2.53-7.67-.11-15.35,0-23,0-3.71,0-3.72,0-2.28-3.47L402,154.17q2.78-6.64,5.53-13.29c2.47-6,7-8.86,13.36-8.89C424.18,132,427.5,132,430.83,132Z" transform="translate(0 -6.8)" style="fill:#105ea4"/><path d="M189.21,188.74c1.85,5,2,10.31,3.68,16,3-8,5.81-15.45,8.58-22.94,5.8-15.64,11.63-31.27,17.3-47,.86-2.38,2-3.06,4.44-3,8.68.14,17.36.06,26.46.06-3.63,8.94-7.09,17.5-10.58,26.05-10.65,26.13-21.35,52.24-31.89,78.42-1.13,2.8-2.48,3.7-5.47,3.6-7.67-.25-15.35-.13-23-.05-1.68,0-2.72-.24-3.21-2.12q-12-45.94-24.08-91.85c1.27-.71,2.2.16,3.12.75,13.57,8.72,24.47,19.9,31.88,34.35A53.55,53.55,0,0,1,189.21,188.74Z" transform="translate(0 -6.8)" style="fill:#105ea4"/><path d="M257.09,239.86c-3.67,0-7.34-.1-11,0-2.07.07-2.84-.34-2.46-2.66,3.07-18.51,6-37,9-55.57,2.47-15.25,5-30.48,7.33-45.76.49-3.24,1.56-4.28,4.9-4.13,7,.31,14,.14,21,.07,2,0,3,0,2.53,2.73-4.62,27.88-9.06,55.8-13.56,83.7-1,6.33-2.16,12.64-3,19-.28,2-1,2.71-3,2.64C264.89,239.76,261,239.86,257.09,239.86Z" transform="translate(0 -6.8)" style="fill:#105ea4"/><path d="M342.42,85.75c0,4.14-.05,7.67,0,11.2a2.75,2.75,0,0,1-1.54,2.75c-10.59,6.11-21.94,8.66-34,6.48-11.71-2.11-18-8.82-19.68-20.7-1.89-13.59,3.1-34.08,19.43-43.23a32.65,32.65,0,0,1,23.23-3.56c10.55,2.19,16.64,10.25,17.34,22.6a58.39,58.39,0,0,1-.87,12c-.31,2-1.19,2.51-3.13,2.49-12-.09-24.06.05-36.09-.11-2.92,0-4,.54-3.87,3.72.35,10.37,7,15.85,18,14.6C328.81,93.09,335.46,89.93,342.42,85.75Z" transform="translate(0 -6.8)" style="fill:#105ea4"/><path d="M127.25,85.79c0,2.5-.29,4.39.05,6.15,1.12,5.8-1.73,8.54-6.8,10.6A53.46,53.46,0,0,1,93,106.45c-12-1.58-19.67-9.23-20.84-21.47C70.76,70.51,74.36,57.44,85.08,47.1c8.23-7.94,18.32-10.54,29.47-8.45,10.17,1.9,16.46,9.66,17.4,21A53.44,53.44,0,0,1,131.32,73c-.35,2.07-1.21,2.74-3.36,2.72-12.14-.11-24.28,0-36.42-.12-2.84,0-3.51.92-3.43,3.53.34,10.62,7.1,16.11,18.16,14.77a47.46,47.46,0,0,0,17.67-6.19C124.91,87.19,125.86,86.61,127.25,85.79Z" transform="translate(0 -6.8)" style="fill:#105ea4"/><path d="M249,52.88c-6.8,0-6.9,0-8,6.71-2.23,14.12-4.42,28.25-6.45,42.39-.38,2.64-1.15,3.82-4,3.6a81.19,81.19,0,0,0-10,0c-2.32.11-3.16-.31-2.72-3,2.54-15.69,4.82-31.42,7.35-47.11.37-2.27-.09-2.71-2.24-2.65s-5.45,1.09-6.52-.49c-.95-1.4.34-4.34.7-6.59,1-6.39,1-6.51,7.77-6.44,2.23,0,3-.77,3.24-2.8.37-3.06.87-6.11,1.4-9.16,1.95-11.18,9-17.86,20.28-19.05,3.28-.35,6.63-.06,9.95-.13,1.76,0,2.52.7,2.36,2.46-.07.79,0,1.6,0,2.4,0,2.75.94,6.17-.35,8.06-1.42,2.1-5,.25-7.66.5-4.78.45-7.59,2.88-8.52,7.89-.48,2.58-.71,5.22-1.23,7.79-.31,1.56.14,2,1.67,2,2.86-.08,5.73,0,8.59,0,1.48,0,2.08.5,2,2s0,2.75,0,4.12C256.67,52.88,256.67,52.88,249,52.88Z" transform="translate(0 -6.8)" style="fill:#105ea4"/><path d="M457.29,59.47c1.77.6,2.48-.54,3.39-1.11a25.66,25.66,0,0,1,8.1-3.57c10.27-2.22,18.14,3.21,19.34,14a38.27,38.27,0,0,1-5.65,25.3c-5.71,9-14.47,12.22-24.67,12.13a61.67,61.67,0,0,1-16.58-2.41c-2-.58-2.69-1.46-2.35-3.59,2.67-16.82,5.25-33.65,7.85-50.48.77-5,1.6-9.93,2.31-14.91.2-1.38.45-2.35,2.12-2.54,3.06-.35,6.11-.9,9.16-1.36,1.16-.18,2-.16,1.77,1.49-1.36,8.46-2.67,16.93-4,25.4A7.79,7.79,0,0,1,457.29,59.47Z" transform="translate(0 -6.8)" style="fill:#105ea4"/><path d="M160.26,52c3.06-3.33,5.47-6.22,8.49-8.45a28.06,28.06,0,0,1,12.48-5.31c2.23-.35,2.48.4,2.44,2.25-.07,3.66-.11,7.33.13,11,.16,2.38-.73,3.1-3,3.41-7.72,1.07-14.18,4.69-19.92,9.92-2.48,2.26-2.92,5-3.37,7.92C156,82.75,154.35,92.79,153,102.87c-.32,2.3-1.23,2.78-3.27,2.7-3.54-.12-7.1-.17-10.64,0-2.47.13-3.16-.61-2.76-3.09,2.16-13.43,4.19-26.87,6.27-40.31,1.07-6.89,2.24-13.77,3.2-20.67.24-1.76.86-2.35,2.58-2.29,3.2.1,6.41.12,9.61,0,1.8-.07,2.41.51,2.34,2.32C160.17,44.72,160.26,47.92,160.26,52Z" transform="translate(0 -6.8)" style="fill:#105ea4"/><path d="M273.88,39.24h1c7.41,0,7.43,0,6.3,7.32-2.89,18.66-5.84,37.3-8.63,56-.33,2.23-.93,3.19-3.33,3.05a91.6,91.6,0,0,0-10.65,0c-2.63.16-3.05-.87-2.68-3.18,2-12.43,3.85-24.87,5.78-37.3,1.17-7.57,2.54-15.12,3.47-22.72.34-2.78,1.47-3.42,3.91-3.17C270.66,39.37,272.27,39.24,273.88,39.24Z" transform="translate(0 -6.8)" style="fill:#105ea4"/><path d="M191.52,105.54a47,47,0,0,0-5.15,0c-2.71.3-3-1-2.62-3.21,3.18-20.12,6.34-40.24,9.36-60.38.33-2.2,1-2.88,3.17-2.79a103.39,103.39,0,0,0,11,0c2.6-.16,2.79,1,2.47,3-1.73,11-3.4,21.93-5.11,32.9-1.42,9.15-3,18.29-4.23,27.47-.32,2.3-1.06,3.21-3.39,3C195.2,105.39,193.35,105.54,191.52,105.54Z" transform="translate(0 -6.8)" style="fill:#105ea4"/><path d="M189.21,188.74c-3.38-7.09-6.89-14.09-11.81-20.29a88.8,88.8,0,0,0-26-22.53c-8-5-16.75-8.4-25.76-11.12-.77-.23-1.53-.47-2.3-.69a1.1,1.1,0,0,1-.91-1.24c.05-.72.55-.93,1.18-.95s1.37,0,2.06,0c13.64,0,27.28,0,40.92,0,8.76,0,12.34,2.9,14,11.35q4.27,21.19,8.38,42.41A23.26,23.26,0,0,1,189.21,188.74Z" transform="translate(0 -6.8)" style="fill:#f3a536"/><path d="M215,17.63a11.15,11.15,0,0,1-11.34,10.86c-5,0-8.53-3.2-8.62-7.8-.12-6,5.21-11.21,11.44-11.23C211.59,9.44,215,12.67,215,17.63Z" transform="translate(0 -6.8)" style="fill:#105ea4"/><path d="M287.17,17.74c-.09,5.93-5.31,10.81-11.49,10.74-5-.06-8.44-3.24-8.43-7.9A11.32,11.32,0,0,1,278.72,9.45C283.77,9.48,287.24,12.88,287.17,17.74Z" transform="translate(0 -6.8)" style="fill:#105ea4"/><path d="M368.69,79.13c.66-8,2-15.55,7.22-21.71,4.89-5.72,16.73-7.28,22.76-3.13,1.17.8.91,1.69.75,2.68-1.22,7.79-2.53,15.57-3.63,23.38a7.77,7.77,0,0,1-2.66,4.94c-3,2.73-6.14,5.14-10.12,6.22-7.4,2-12.41-1.11-13.78-8.6C369,81.56,368.84,80.2,368.69,79.13Z" transform="translate(0 -6.8)" style="fill:#fefefe"/><path d="M409.59,201.45l14.57-39.79c2.48,12,4.82,23.13,7.1,34.29,1.12,5.49,1.08,5.5-4.4,5.5Z" transform="translate(0 -6.8)" style="fill:#fefefe"/><path d="M305.35,65.26c2.21-6.9,5-12.91,12.25-15.22,3.85-1.22,7.55-.73,10.45,2.29,3.16,3.3,3.44,7.56,3.34,11.85,0,1.18-1,1.08-1.74,1.08Z" transform="translate(0 -6.8)" style="fill:#fefefe"/><path d="M92.13,65.27c-1,0-1.9.08-1.41-1.43,1.78-5.49,4.35-10.44,9.79-13.09,8-3.88,15.14.76,15.71,10,.28,4.49.28,4.49-4.15,4.49" transform="translate(0 -6.8)" style="fill:#fefefe"/><path d="M475.35,75.84a29.51,29.51,0,0,1-1.77,9.75c-3,8.46-10.28,12.15-18.9,9.71-1.81-.51-2.27-1.33-2-3.17,1-5.86,1.82-11.75,2.76-17.63.9-5.6,10.36-10.79,15.41-8.34C474.9,68.11,475.32,71.94,475.35,75.84Z" transform="translate(0 -6.8)" style="fill:#fefefe"/></svg>